<svg xmlns="http://www.w3.org/2000/svg" width="43.512" height="31.831" viewBox="0 0 43.512 31.831"><path d="M124.475-17.221q-2.433-2.495-2.432-7.264V-37.316h2.368V-24.58q0,3.9,1.759,5.824a6.559,6.559,0,0,0,5.089,1.92,6.6,6.6,0,0,0,5.12-1.92q1.759-1.92,1.76-5.824V-37.316h2.3v12.831q0,4.768-2.416,7.264a8.982,8.982,0,0,1-6.768,2.5A9.034,9.034,0,0,1,124.475-17.221Zm37.777-5.742V-35.7q0-3.9-1.759-5.825a6.6,6.6,0,0,0-5.12-1.92,6.557,6.557,0,0,0-5.089,1.92q-1.759,1.921-1.759,5.825v12.736h-2.368V-35.915q-.047-3.742-1.759-5.609a6.6,6.6,0,0,0-5.119-1.92,6.557,6.557,0,0,0-5.089,1.92q-1.76,1.921-1.76,5.825v12.736h-2.368V-35.795q0-4.768,2.432-7.264a9.034,9.034,0,0,1,6.784-2.5,8.982,8.982,0,0,1,6.768,2.5,7.5,7.5,0,0,1,1.266,1.768,7.48,7.48,0,0,1,1.275-1.768,9.034,9.034,0,0,1,6.784-2.5,8.982,8.982,0,0,1,6.768,2.5q2.415,2.5,2.416,7.264v12.832Z" transform="translate(-121.544 46.055)" fill="#172844" stroke="rgba(0,0,0,0)" stroke-linejoin="round" stroke-miterlimit="10" stroke-width="1"/></svg>